<svg xmlns="http://www.w3.org/2000/svg" viewBox="0 0 423.84 83.6"><defs><style>.cls-1{fill:#030104;}</style></defs><title>logo</title><g id="Layer_2" data-name="Layer 2"><g id="Ebene_1" data-name="Ebene 1"><path class="cls-1" d="M36.36,34.79V6.11a5.48,5.48,0,0,1,2.93-5,5.93,5.93,0,0,1,8.82,5V34.84a5.48,5.48,0,0,1-2.93,5A5.94,5.94,0,0,1,36.36,34.79ZM69,9.48a5.05,5.05,0,0,0-7,.8,4.75,4.75,0,0,0,.82,6.79A31.16,31.16,0,0,1,75.2,41.9c0,17.43-14.55,31.6-32.43,31.6S10.34,59.33,10.34,41.9A31.16,31.16,0,0,1,22.7,17.08a4.75,4.75,0,0,0,.82-6.79,5,5,0,0,0-7-.8A40.7,40.7,0,0,0,.43,41.9c0,22.75,19,41.26,42.34,41.26S85.11,64.65,85.11,41.9A40.69,40.69,0,0,0,69,9.48Z"/><path class="cls-1" d="M42.77,83.59C19.19,83.59,0,64.89,0,41.9A41.09,41.09,0,0,1,16.3,9.16a5.48,5.48,0,0,1,7.55.86A5.16,5.16,0,0,1,23,17.41,30.75,30.75,0,0,0,10.77,41.9c0,17.19,14.35,31.18,32,31.18s32-14,32-31.18A30.77,30.77,0,0,0,62.57,17.4a5.23,5.23,0,0,1-2-3.53A5.15,5.15,0,0,1,61.68,10a5.49,5.49,0,0,1,7.55-.87A41.12,41.12,0,0,1,85.54,41.9C85.54,64.89,66.35,83.59,42.77,83.59ZM19.63,8.88a4.58,4.58,0,0,0-2.81.95A40.25,40.25,0,0,0,.85,41.9c0,22.52,18.81,40.84,41.92,40.84S84.69,64.42,84.69,41.9a40.26,40.26,0,0,0-16-32.08h0a4.61,4.61,0,0,0-6.37.73,4.28,4.28,0,0,0-.94,3.22,4.35,4.35,0,0,0,1.69,3A31.58,31.58,0,0,1,75.63,41.9c0,17.66-14.74,32-32.86,32S9.92,59.56,9.92,41.9A31.57,31.57,0,0,1,22.44,16.74a4.35,4.35,0,0,0,1.69-2.95,4.27,4.27,0,0,0-.94-3.23A4.57,4.57,0,0,0,19.63,8.88ZM42.23,41a6.41,6.41,0,0,1-3.39-1,6.11,6.11,0,0,1-2.91-5.19V6.11A5.93,5.93,0,0,1,39.1.75,6.65,6.65,0,0,1,45.63,1a6.11,6.11,0,0,1,2.91,5.19V34.84a5.91,5.91,0,0,1-3.17,5.36A7.2,7.2,0,0,1,42.23,41Zm0-40.1a6.24,6.24,0,0,0-2.77.67,5,5,0,0,0-2.7,4.59V34.79a5.27,5.27,0,0,0,2.51,4.47,5.79,5.79,0,0,0,5.71.17,5,5,0,0,0,2.69-4.59V6.16a5.27,5.27,0,0,0-2.51-4.47A5.48,5.48,0,0,0,42.25.85Z"/><path d="M100.12,81.75a5.49,5.49,0,0,1-1.48-4V13.32a5.26,5.26,0,0,1,1.43-3.87,5.39,5.39,0,0,1,4-1.43H142c3.4,0,5.09,1.49,5.09,4.46s-1.69,4.45-5.09,4.45H109.45V40.35h30.42c3.4,0,5.09,1.49,5.09,4.46s-1.69,4.45-5.09,4.45H109.45V77.77a5.57,5.57,0,0,1-1.43,4,5.94,5.94,0,0,1-7.9,0Z"/><path d="M159.59,81.75a5.5,5.5,0,0,1-1.49-4V13.32a5.23,5.23,0,0,1,1.44-3.87,5.36,5.36,0,0,1,4-1.43h38q5.08,0,5.09,4.46c0,3-1.7,4.45-5.09,4.45H168.92V40.35h30.42q5.08,0,5.09,4.46c0,3-1.7,4.45-5.09,4.45H168.92V77.77a5.57,5.57,0,0,1-1.43,4,5.27,5.27,0,0,1-4,1.48A5.2,5.2,0,0,1,159.59,81.75Z"/><path d="M219,81.38a4.93,4.93,0,0,1-1.43-3.71V13a5.49,5.49,0,0,1,1.48-4A5.23,5.23,0,0,1,223,7.49,5.43,5.43,0,0,1,227,9a5.44,5.44,0,0,1,1.49,4V73.64h32.22a5.53,5.53,0,0,1,3.76,1.16,5,5,0,0,1,0,6.79,5.48,5.48,0,0,1-3.76,1.16H222.87A5.36,5.36,0,0,1,219,81.38Z"/><path d="M277,81.8a5.44,5.44,0,0,1-1.48-4V13A5.49,5.49,0,0,1,277,9,5.23,5.23,0,0,1,281,7.49,5.43,5.43,0,0,1,285,9a5.44,5.44,0,0,1,1.49,4V77.77a5.57,5.57,0,0,1-1.43,4A5.42,5.42,0,0,1,281,83.28,5.31,5.31,0,0,1,277,81.8Z"/><path d="M313.23,81.38a30.41,30.41,0,0,1-11.6-6.15,5.41,5.41,0,0,1-2-4.35,5,5,0,0,1,1.06-3.23,3.2,3.2,0,0,1,2.55-1.33,7,7,0,0,1,3.6,1.38,35.15,35.15,0,0,0,21.52,7q8.48,0,13-3.18a10.46,10.46,0,0,0,4.55-9.12,7.5,7.5,0,0,0-4.24-7q-4.23-2.34-13.56-4.46a81.89,81.89,0,0,1-14.63-4.34,21.8,21.8,0,0,1-9-6.63,16.88,16.88,0,0,1-3.23-10.65,19.45,19.45,0,0,1,3.55-11.5A23.27,23.27,0,0,1,314.77,10a35.49,35.49,0,0,1,14.52-2.81A43.5,43.5,0,0,1,343.18,9.3,29.12,29.12,0,0,1,354,15.55a5.53,5.53,0,0,1,2.12,4.35A4.93,4.93,0,0,1,355,23.08a3.29,3.29,0,0,1-2.6,1.37,7,7,0,0,1-3.5-1.37,37.61,37.61,0,0,0-9.17-5.36,29,29,0,0,0-10.33-1.64q-8.16,0-12.72,3.34a10.84,10.84,0,0,0-4.56,9.27,8.55,8.55,0,0,0,4,7.69q4,2.59,12.93,4.72a108.29,108.29,0,0,1,15.11,4.39,23.33,23.33,0,0,1,9.22,6.26A15.09,15.09,0,0,1,356.85,62a18.81,18.81,0,0,1-3.55,11.29,22.93,22.93,0,0,1-10,7.63,37.89,37.89,0,0,1-14.79,2.7A52.12,52.12,0,0,1,313.23,81.38Z"/><path d="M388.07,81.75a5.37,5.37,0,0,1-1.54-4V17.14h-21.2q-5.08,0-5.09-4.56a4.26,4.26,0,0,1,1.33-3.39A5.5,5.5,0,0,1,365.33,8h53.43a5.52,5.52,0,0,1,3.76,1.17,4.29,4.29,0,0,1,1.32,3.39q0,4.56-5.08,4.56h-21.2V77.77a5.5,5.5,0,0,1-1.49,4,6,6,0,0,1-8,0Z"/></g></g></svg>